<svg width="1685" height="260" viewBox="0 0 1685 260" fill="none" xmlns="http://www.w3.org/2000/svg">
<path fill-rule="evenodd" clip-rule="evenodd" d="M1026.8 191.124L1012.95 204.968C1010.74 207.175 1010.74 210.815 1012.95 213.082L1040.36 240.47C1042.56 242.678 1042.56 246.318 1040.36 248.585L1030.92 258.013C1028.71 260.221 1025.07 260.221 1022.8 258.013L995.398 230.625C993.189 228.417 989.547 228.417 987.279 230.625L973.427 244.468C970.323 247.571 965.009 246.139 963.875 241.902L944.352 169.047C943.217 164.751 947.098 160.872 951.397 162.006L1024.24 181.518C1028.47 182.651 1029.91 187.962 1026.8 191.065V191.124Z" fill="white"/>
<path d="M1196.04 199.541C1191.8 209.446 1185.89 216.547 1178.31 220.724C1170.72 224.721 1161.83 226.75 1151.74 226.75C1142.24 226.75 1133.29 224.96 1124.81 221.38C1116.57 217.8 1109.29 212.549 1102.96 205.568C1096.63 198.587 1091.56 190.173 1087.79 180.268C1084.21 170.363 1082.42 159.086 1082.42 146.436V141.365C1082.42 128.894 1084.21 117.736 1087.79 107.831C1091.38 97.9259 1096.21 89.453 1102.36 82.5314C1108.51 75.5502 1115.56 70.2994 1123.56 66.7193C1131.8 62.9005 1140.57 61.0508 1149.83 61.0508C1160.99 61.0508 1170.01 62.9602 1176.75 66.7193C1183.74 70.5381 1189.23 76.4453 1193.23 84.4408H1198.96V65.4662H1238.85V174.898C1238.85 181.223 1241.71 184.386 1247.38 184.386H1253.41V222.335H1226.19C1219.02 222.335 1213.11 220.246 1208.46 216.01C1204.04 211.773 1201.83 206.284 1201.83 199.541H1196.1H1196.04ZM1160.57 188.741C1172.16 188.741 1181.47 184.923 1188.45 177.345C1195.44 169.528 1198.9 158.967 1198.9 145.72V141.902C1198.9 128.596 1195.44 118.154 1188.45 110.576C1181.47 102.759 1172.22 98.8806 1160.57 98.8806C1148.93 98.8806 1139.68 102.759 1132.75 110.576C1125.77 118.154 1122.3 128.596 1122.3 141.902V145.72C1122.3 159.026 1125.77 169.528 1132.75 177.345C1139.74 184.923 1148.99 188.741 1160.57 188.741Z" fill="white"/>
<path d="M591.534 222.274H551.651V0.84375H591.534V88.1388H597.205C601.444 79.4868 607.534 72.8636 615.534 68.2095C623.535 63.3763 633.804 60.9299 646.222 60.9299C655.476 60.9299 664.253 62.72 672.492 66.3001C680.91 69.8802 688.194 75.131 694.344 82.1123C700.672 88.8548 705.628 97.2084 709.21 107.113C713.031 117.018 714.882 128.296 714.882 140.945V146.614C714.882 159.502 713.091 170.839 709.508 180.804C705.926 190.709 701.09 199.122 694.941 206.103C688.851 212.846 681.567 218.037 673.089 221.617C664.85 225.018 655.894 226.689 646.163 226.689C638.998 226.689 632.729 225.973 627.475 224.481C622.221 222.99 617.564 221.021 613.564 218.455C609.743 215.949 606.519 213.085 603.773 209.922C601.265 206.521 599.056 203.06 597.146 199.48H591.474V222.274H591.534ZM633.326 188.74C645.745 188.74 655.775 184.921 663.417 177.343C671.238 169.527 675.119 158.965 675.119 145.719V141.9C675.119 128.594 671.238 118.152 663.417 110.574C655.835 102.758 645.804 98.8791 633.326 98.8791C620.848 98.8791 610.758 102.877 602.937 110.872C595.355 118.689 591.534 129.012 591.534 141.9V145.719C591.534 158.607 595.355 169.049 602.937 177.045C610.758 184.861 620.848 188.74 633.326 188.74Z" fill="white"/>
<path d="M414.452 109.68C414.452 114.752 417.079 118.451 422.393 120.778C427.647 122.866 437.259 124.657 451.17 126.148C467.23 127.819 480.306 132.712 490.396 140.707C500.545 148.524 505.56 159.503 505.56 173.585V175.494C505.56 191.127 499.889 203.538 488.485 212.847C477.082 222.155 461.081 226.749 440.364 226.749C428.124 226.749 417.676 225.138 409.019 221.976C400.362 218.813 393.198 214.935 387.466 210.281C381.794 205.448 377.316 200.137 374.152 194.469C371.227 188.562 369.197 182.893 368.122 177.403L404.84 165.41C406.512 172.153 410.034 178.06 415.288 183.132C420.781 188.203 429.139 190.71 440.304 190.71C450.215 190.71 456.961 189.218 460.544 186.294C464.365 183.132 466.216 179.731 466.216 176.15C466.216 174.062 465.678 172.153 464.604 170.482C463.768 168.573 462.096 166.902 459.529 165.41C457.021 163.739 453.499 162.367 449.081 161.293C444.842 160.219 439.468 159.384 432.96 158.787C415.228 157.295 401.079 152.76 390.571 145.183C380.242 137.366 375.048 125.969 375.048 110.992V109.083C375.048 101.266 376.719 94.4046 380.123 88.4974C383.526 82.5902 387.944 77.6377 393.437 73.64C398.929 69.4035 405.258 66.2411 412.422 64.1527C419.587 62.0643 426.99 60.9902 434.572 60.9902C444.483 60.9902 453.021 62.2433 460.185 64.809C467.589 67.1361 473.798 70.2985 478.873 74.2963C483.948 78.1151 488.067 82.4112 491.231 87.2444C494.396 91.8985 496.844 96.4333 498.515 100.849L462.454 115.408C460.544 109.739 457.26 105.264 452.663 102.102C448.006 98.7007 442.035 97.03 434.632 97.03C427.886 97.03 422.811 98.2831 419.467 100.849C416.064 103.176 414.393 106.1 414.393 109.68H414.452Z" fill="white"/>
<path d="M195.578 184.326H248.774V103.355H199.399V65.4062H288.656V184.326H334.211V222.275H195.578V184.326Z" fill="white"/>
<path d="M0.166992 0.84375H41.9597V182.415H142.62V222.274H0.166992V0.84375Z" fill="white"/>
<path d="M1557.31 0.84375L1594.62 91.3012H1602.2L1639.58 0.84375H1684.83L1639.28 108.426V114.095L1684.83 222.274H1639.58L1602.2 131.16H1594.62L1557.31 222.274H1511.99L1557.6 114.095V108.426L1511.99 0.84375H1557.31Z" fill="white"/>
<path d="M1465.9 0.84375V145.719C1465.9 171.018 1459.15 190.828 1445.66 205.208C1432.35 219.529 1412.52 226.749 1386.13 226.749C1359.75 226.749 1339.8 219.589 1326.31 205.208C1313 190.888 1306.37 171.018 1306.37 145.719V0.84375H1348.16V145.719C1348.16 158.786 1351.21 169.049 1357.36 176.389C1363.51 183.787 1373.06 187.487 1386.13 187.487C1399.21 187.487 1408.82 183.787 1414.91 176.389C1421 168.99 1424.11 158.786 1424.11 145.719V0.84375H1465.9Z" fill="white"/>
<path d="M288.477 0.84375H250.087V40.046H288.477V0.84375Z" fill="white"/>
<path fill-rule="evenodd" clip-rule="evenodd" d="M828.498 109.204H962.308C983.246 109.204 1000.22 126.167 1000.22 147.092C1000.22 150.251 999.832 153.319 999.104 156.253L1028.87 164.225L1028.87 164.227C1032.77 165.272 1036.1 167.171 1038.78 169.635C1040.88 162.487 1042.01 154.922 1042.01 147.092C1042.01 103.099 1006.33 67.4355 962.308 67.4355H828.498C784.478 67.4355 748.794 103.099 748.794 147.092C748.794 191.085 784.478 226.748 828.498 226.748H941.271L930.079 184.98H828.498C807.56 184.98 790.587 168.017 790.587 147.092C790.587 126.167 807.56 109.204 828.498 109.204ZM948.621 184.98L959.814 226.748H962.308C980.808 226.748 997.835 220.45 1011.36 209.881C1011.1 208.131 1011.63 206.291 1012.95 204.967L1026.8 191.124V191.064C1029.91 187.962 1028.47 182.651 1024.24 181.517L990.459 172.47C983.521 180.152 973.479 184.98 962.308 184.98H948.621Z" fill="white"/>
</svg>
