<svg width="1685" height="260" viewBox="0 0 1685 260" fill="none" xmlns="http://www.w3.org/2000/svg">
<path fill-rule="evenodd" clip-rule="evenodd" d="M1026.8 191.246L1012.95 205.089C1010.74 207.296 1010.74 210.936 1012.95 213.204L1040.36 240.591C1042.56 242.799 1042.56 246.439 1040.36 248.706L1030.92 258.134C1028.71 260.342 1025.07 260.342 1022.8 258.134L995.398 230.746C993.189 228.538 989.547 228.538 987.279 230.746L973.427 244.589C970.323 247.692 965.009 246.26 963.875 242.023L944.352 169.168C943.217 164.872 947.098 160.994 951.397 162.127L1024.24 181.639C1028.47 182.773 1029.91 188.083 1026.8 191.186V191.246Z" fill="black"/>
<path d="M1196.04 199.662C1191.8 209.567 1185.89 216.668 1178.31 220.845C1170.72 224.843 1161.83 226.871 1151.74 226.871C1142.24 226.871 1133.29 225.081 1124.81 221.501C1116.57 217.921 1109.29 212.67 1102.96 205.689C1096.63 198.708 1091.56 190.295 1087.79 180.39C1084.21 170.485 1082.42 159.207 1082.42 146.558V141.486C1082.42 129.015 1084.21 117.857 1087.79 107.952C1091.38 98.047 1096.21 89.5741 1102.36 82.6525C1108.51 75.6713 1115.56 70.4205 1123.56 66.8404C1131.8 63.0216 1140.57 61.1719 1149.83 61.1719C1160.99 61.1719 1170.01 63.0813 1176.75 66.8404C1183.74 70.6592 1189.23 76.5663 1193.23 84.5619H1198.96V65.5873H1238.85V175.019C1238.85 181.344 1241.71 184.507 1247.38 184.507H1253.41V222.456H1226.19C1219.02 222.456 1213.11 220.367 1208.46 216.131C1204.04 211.895 1201.83 206.405 1201.83 199.662H1196.1H1196.04ZM1160.57 188.862C1172.16 188.862 1181.47 185.044 1188.45 177.466C1195.44 169.649 1198.9 159.088 1198.9 145.841V142.023C1198.9 128.717 1195.44 118.275 1188.45 110.697C1181.47 102.88 1172.22 99.0017 1160.57 99.0017C1148.93 99.0017 1139.68 102.88 1132.75 110.697C1125.77 118.275 1122.3 128.717 1122.3 142.023V145.841C1122.3 159.148 1125.77 169.649 1132.75 177.466C1139.74 185.044 1148.99 188.862 1160.57 188.862Z" fill="black"/>
<path d="M591.534 222.395H551.651V0.964844H591.534V88.2599H597.205C601.444 79.6079 607.534 72.9847 615.534 68.3306C623.535 63.4974 633.804 61.051 646.222 61.051C655.476 61.051 664.253 62.8411 672.492 66.4212C680.91 70.0013 688.194 75.2521 694.344 82.2334C700.672 88.9759 705.628 97.3295 709.21 107.234C713.031 117.139 714.882 128.417 714.882 141.066V146.735C714.882 159.623 713.091 170.96 709.508 180.925C705.926 190.83 701.09 199.243 694.941 206.225C688.851 212.967 681.567 218.158 673.089 221.738C664.85 225.139 655.894 226.81 646.163 226.81C638.998 226.81 632.729 226.094 627.475 224.602C622.221 223.111 617.564 221.142 613.564 218.576C609.743 216.07 606.519 213.206 603.773 210.043C601.265 206.642 599.056 203.181 597.146 199.601H591.474V222.395H591.534ZM633.326 188.861C645.745 188.861 655.775 185.042 663.417 177.464C671.238 169.648 675.119 159.086 675.119 145.84V142.021C675.119 128.715 671.238 118.273 663.417 110.695C655.835 102.879 645.804 99.0002 633.326 99.0002C620.848 99.0002 610.758 102.998 602.937 110.994C595.355 118.81 591.534 129.133 591.534 142.021V145.84C591.534 158.728 595.355 169.17 602.937 177.166C610.758 184.983 620.848 188.861 633.326 188.861Z" fill="black"/>
<path d="M414.452 109.801C414.452 114.873 417.079 118.572 422.393 120.899C427.647 122.988 437.259 124.778 451.17 126.269C467.23 127.94 480.306 132.833 490.396 140.828C500.545 148.645 505.56 159.624 505.56 173.706V175.615C505.56 191.248 499.889 203.659 488.485 212.968C477.082 222.276 461.081 226.87 440.364 226.87C428.124 226.87 417.676 225.259 409.019 222.097C400.362 218.935 393.198 215.056 387.466 210.402C381.794 205.569 377.316 200.258 374.152 194.59C371.227 188.683 369.197 183.014 368.122 177.525L404.84 165.531C406.512 172.274 410.034 178.181 415.288 183.253C420.781 188.325 429.139 190.831 440.304 190.831C450.215 190.831 456.961 189.339 460.544 186.415C464.365 183.253 466.216 179.852 466.216 176.272C466.216 174.183 465.678 172.274 464.604 170.603C463.768 168.694 462.096 167.023 459.529 165.531C457.021 163.86 453.499 162.488 449.081 161.414C444.842 160.34 439.468 159.505 432.96 158.908C415.228 157.416 401.079 152.881 390.571 145.304C380.242 137.487 375.048 126.09 375.048 111.114V109.204C375.048 101.388 376.719 94.5257 380.123 88.6185C383.526 82.7113 387.944 77.7588 393.437 73.7611C398.929 69.5246 405.258 66.3622 412.422 64.2738C419.587 62.1854 426.99 61.1113 434.572 61.1113C444.483 61.1113 453.021 62.3644 460.185 64.9301C467.589 67.2572 473.798 70.4196 478.873 74.4174C483.948 78.2362 488.067 82.5323 491.231 87.3655C494.396 92.0196 496.844 96.5544 498.515 100.97L462.454 115.529C460.544 109.861 457.26 105.385 452.663 102.223C448.006 98.8218 442.035 97.1511 434.632 97.1511C427.886 97.1511 422.811 98.4041 419.467 100.97C416.064 103.297 414.393 106.221 414.393 109.801H414.452Z" fill="black"/>
<path d="M195.578 184.447H248.774V103.477H199.399V65.5273H288.656V184.447H334.211V222.396H195.578V184.447Z" fill="black"/>
<path d="M0.166992 0.964844H41.9597V182.536H142.62V222.395H0.166992V0.964844Z" fill="black"/>
<path d="M1557.31 0.964844L1594.62 91.4223H1602.2L1639.58 0.964844H1684.83L1639.28 108.547V114.216L1684.83 222.395H1639.58L1602.2 131.281H1594.62L1557.31 222.395H1511.99L1557.6 114.216V108.547L1511.99 0.964844H1557.31Z" fill="black"/>
<path d="M1465.9 0.964844V145.84C1465.9 171.139 1459.15 190.949 1445.66 205.329C1432.35 219.65 1412.52 226.87 1386.13 226.87C1359.75 226.87 1339.8 219.71 1326.31 205.329C1313 191.009 1306.37 171.139 1306.37 145.84V0.964844H1348.16V145.84C1348.16 158.907 1351.21 169.17 1357.36 176.51C1363.51 183.908 1373.06 187.608 1386.13 187.608C1399.21 187.608 1408.82 183.908 1414.91 176.51C1421 169.111 1424.11 158.907 1424.11 145.84V0.964844H1465.9Z" fill="black"/>
<path d="M288.477 0.964844H250.087V40.1671H288.477V0.964844Z" fill="black"/>
<path fill-rule="evenodd" clip-rule="evenodd" d="M828.498 109.325H962.308C983.246 109.325 1000.22 126.288 1000.22 147.213C1000.22 150.372 999.832 153.44 999.104 156.374L1028.87 164.346L1028.87 164.348C1032.77 165.393 1036.1 167.292 1038.78 169.756C1040.88 162.608 1042.01 155.043 1042.01 147.213C1042.01 103.22 1006.33 67.5566 962.308 67.5566H828.498C784.478 67.5566 748.794 103.22 748.794 147.213C748.794 191.206 784.478 226.869 828.498 226.869H941.271L930.079 185.101H828.498C807.56 185.101 790.587 168.138 790.587 147.213C790.587 126.288 807.56 109.325 828.498 109.325ZM948.621 185.101L959.814 226.869H962.308C980.808 226.869 997.835 220.571 1011.36 210.002C1011.1 208.252 1011.63 206.413 1012.95 205.088L1026.8 191.245V191.185C1029.91 188.083 1028.47 182.772 1024.24 181.638L990.459 172.591C983.521 180.273 973.479 185.101 962.308 185.101H948.621Z" fill="black"/>
</svg>
